<svg xmlns="http://www.w3.org/2000/svg" viewBox="0 0 298.29 252.59"><defs><style>.cls-1{fill:#cc7619;}.cls-2{fill:#f8b78c;}.cls-3{fill:#f09d37;}.cls-4{fill:#010101;opacity:0.05;}.cls-5{fill:#cbc2c1;}.cls-6{fill:#f2eae8;}.cls-7{fill:#aca2a1;}.cls-8{fill:#e1dcd2;}.cls-9{fill:#e4c8b5;}.cls-10{fill:#ede3e2;}.cls-11{fill:#c1987f;}.cls-12{fill:#b8b8b8;}.cls-13{fill:#ddecfa;}.cls-14{fill:#f7d8c5;}.cls-15{fill:#6a514d;}.cls-16{fill:#f0f0f0;}.cls-17{fill:#e7e6e6;}.cls-18{fill:#daccbc;}.cls-19{fill:#d9d9d9;}.cls-20{fill:#e7cbb8;}.cls-21{fill:#f0ece0;}.cls-22{fill:#d1ccc2;}.cls-23{fill:#f2f2f2;}.cls-24{fill:#cac9c9;}.cls-25{fill:#9e7c67;}.cls-26{fill:#d9ab8e;}.cls-27{fill:#969389;}.cls-28{fill:#faf6ea;}.cls-29{fill:#f19e37;stroke:#eaeaea;stroke-width:4px;}.cls-29,.cls-31{stroke-miterlimit:10;}.cls-30,.cls-31{fill:#eaeaea;}.cls-31{stroke:#424241;}.cls-32{fill:#d1e1ea;opacity:0.5;}.cls-33{fill:#648098;}.cls-34{fill:#7899b6;}</style></defs><title>G10_03</title><g id="Tiles"><polygon class="cls-1" points="185.79 194.98 185.79 199.73 96.25 252.59 96.25 247.84 185.79 194.98"/><polygon class="cls-2" points="96.25 247.84 96.25 252.59 0 196.5 0 191.75 96.25 247.84"/><polygon class="cls-3" points="96.1 247.75 0 191.75 90.31 139.85 185.79 194.98 96.25 247.84 96.1 247.75"/><polygon class="cls-4" points="60.71 216.29 24.3 205.28 48.34 193.45 60.71 216.29"/><polygon class="cls-5" points="65.22 218.54 144.91 178.73 144.91 172.7 65.22 212.51 65.22 218.54"/><polygon class="cls-6" points="65.23 212.51 144.92 172.71 118.68 159.62 38.99 199.42 65.23 212.51"/><polygon class="cls-7" points="38.98 205.44 65.22 218.54 65.22 212.51 38.98 199.41 38.98 205.44"/><polygon class="cls-8" points="95.02 217.56 148.26 191.01 148.26 184.98 95.02 211.53 95.02 217.56"/><polygon class="cls-6" points="95.03 211.53 148.27 184.99 134.09 178.02 81 204.56 95.03 211.53"/><polygon class="cls-7" points="80.99 210.58 95.02 217.56 95.02 211.53 80.99 204.56 80.99 210.58"/><polygon class="cls-7" points="146.62 185.78 146.62 191.36 158.07 197.19 158.07 191.6 146.62 185.78"/><polygon class="cls-6" points="159.78 190.75 158.07 191.6 146.62 185.79 148.24 184.98 159.78 190.75"/><polygon class="cls-5" points="159.78 196.35 158.07 197.19 158.07 191.6 159.78 190.75 159.78 196.35"/><polygon class="cls-5" points="152.87 190.65 102.62 215.65 102.62 213.93 152.87 188.94 152.87 190.65"/><polygon class="cls-6" points="155.15 191.8 104.9 216.78 102.62 215.65 152.87 190.66 155.15 191.8"/><polygon class="cls-5" points="155.15 193.6 104.9 218.59 104.9 216.8 155.15 191.81 155.15 193.6"/><polygon class="cls-6" points="157.42 194.74 107.18 219.73 104.9 218.59 155.15 193.6 157.42 194.74"/><polygon class="cls-5" points="157.42 196.9 107.18 222.25 107.18 219.75 157.42 194.75 157.42 196.9"/><polygon class="cls-6" points="152.87 188.93 102.89 213.83 96.64 210.73 146.62 185.82 152.87 188.93"/><polygon class="cls-9" points="65.22 210.91 144.91 171.1 144.91 139.96 65.22 179.77 65.22 210.91"/><polygon class="cls-10" points="65.23 179.78 144.92 139.97 121.81 128.41 42.12 168.22 65.23 179.78"/><polygon class="cls-11" points="42.11 199.35 65.22 210.91 65.22 179.77 42.11 168.21 42.11 199.35"/><polygon class="cls-9" points="95.17 209.93 145.07 184.95 145.07 153.81 95.17 178.79 95.17 209.93"/><polygon class="cls-10" points="95.03 178.79 144.93 153.81 130.9 146.85 81 171.82 95.03 178.79"/><polygon class="cls-11" points="81.14 202.96 95.17 209.93 95.17 178.79 81.14 171.82 81.14 202.96"/><polygon class="cls-11" points="104.07 182.67 103.41 181.72 103.92 181.9 104.15 182.13 104.07 182.67"/><ellipse class="cls-12" cx="107.11" cy="187.03" rx="2.62" ry="1.6" transform="translate(-111.3 153.24) rotate(-52.02)"/><polygon class="cls-12" points="99.99 190.93 99.99 184.93 104.08 182.88 104.08 188.89 99.99 190.93"/><polygon class="cls-13" points="103.83 188.76 100.25 190.55 100.25 184.8 103.83 183.01 103.83 188.76"/><polygon class="cls-12" points="101.03 187.15 103.95 185.69 103.95 185.43 101.03 186.89 101.03 187.15"/><path class="cls-13" d="M107.11,185.24a3.4,3.4,0,0,0-1.79,2.69,1.75,1.75,0,0,0,0,.24l3.53-1.77a2.6,2.6,0,0,0,0-.26C108.91,185.15,108.1,184.75,107.11,185.24Z" transform="translate(-5.08 -3.13)"/><polygon class="cls-12" points="102.18 189.58 101.89 189.73 101.89 182.15 102.18 182.01 102.18 189.58"/><polygon class="cls-11" points="105 189.35 104.08 188.89 104.08 182.71 105 183.17 105 189.35"/><rect class="cls-9" x="99.52" y="183.9" width="1.51" height="7.92"/><polygon class="cls-14" points="105 189.35 101.04 191.34 101.04 190.41 104.08 188.89 105 189.35"/><path class="cls-9" d="M108.05,185.27A2.11,2.11,0,0,1,109,185c-.3-.59-1-.75-1.88-.33a3.82,3.82,0,0,0-2,3.05c0,.78.31,1.17,1,1.18-.09-.18,0-.35,0-.62A3.81,3.81,0,0,1,108.05,185.27Z" transform="translate(-5.08 -3.13)"/><path class="cls-11" d="M109,185a1.42,1.42,0,0,1,.15.68v0h0v0l0,2.71a3.54,3.54,0,0,0,.92-2.17A1.11,1.11,0,0,0,109,185Z" transform="translate(-5.08 -3.13)"/><path class="cls-9" d="M108.81,185a2.56,2.56,0,0,1,1.11.53,2.33,2.33,0,0,0-1.75-1.1Z" transform="translate(-5.08 -3.13)"/><polygon class="cls-11" points="113.2 178.07 112.54 177.13 113.05 177.3 113.29 177.53 113.2 178.07"/><path class="cls-12" d="M118.29,181.41a3.85,3.85,0,0,1-2,3.07c-1.13.56-2,.11-2-1a3.85,3.85,0,0,1,2-3.07C117.38,179.83,118.29,180.28,118.29,181.41Z" transform="translate(-5.08 -3.13)"/><polygon class="cls-12" points="109.13 186.33 109.13 180.33 113.22 178.28 113.22 184.29 109.13 186.33"/><polygon class="cls-13" points="112.96 184.16 109.38 185.95 109.38 180.2 112.96 178.41 112.96 184.16"/><polygon class="cls-12" points="110.17 182.55 113.08 181.09 113.08 180.83 110.17 182.29 110.17 182.55"/><path class="cls-13" d="M116.25,180.64a3.38,3.38,0,0,0-1.79,2.69,1.79,1.79,0,0,0,0,.24L118,181.8a1.09,1.09,0,0,0,0-.26C118,180.55,117.24,180.15,116.25,180.64Z" transform="translate(-5.08 -3.13)"/><polygon class="cls-12" points="111.31 184.99 111.03 185.13 111.03 177.55 111.31 177.41 111.31 184.99"/><polygon class="cls-11" points="114.14 184.75 113.22 184.29 113.22 178.1 114.14 178.57 114.14 184.75"/><rect class="cls-9" x="108.66" y="179.3" width="1.51" height="7.92"/><polygon class="cls-14" points="114.14 184.75 110.17 186.74 110.17 185.81 113.22 184.29 114.14 184.75"/><path class="cls-9" d="M117.19,180.67a2.11,2.11,0,0,1,.94-.24c-.3-.59-1-.75-1.88-.33a3.83,3.83,0,0,0-2,3.05c0,.78.31,1.17,1,1.19-.1-.19,0-.36,0-.63A3.81,3.81,0,0,1,117.19,180.67Z" transform="translate(-5.08 -3.13)"/><path class="cls-11" d="M118.13,180.43a1.71,1.71,0,0,1,.15.68v0h0v2.73a3.49,3.49,0,0,0,.93-2.16A1.12,1.12,0,0,0,118.13,180.43Z" transform="translate(-5.08 -3.13)"/><path class="cls-9" d="M117.94,180.44a2.56,2.56,0,0,1,1.11.53,2.33,2.33,0,0,0-1.75-1.1Z" transform="translate(-5.08 -3.13)"/><polygon class="cls-11" points="122.33 173.47 121.67 172.53 122.19 172.7 122.42 172.93 122.33 173.47"/><ellipse class="cls-12" cx="125.38" cy="177.83" rx="2.62" ry="1.6" transform="translate(-97.03 164.1) rotate(-52.02)"/><polygon class="cls-12" points="118.26 181.73 118.26 175.73 122.35 173.68 122.35 179.69 118.26 181.73"/><polygon class="cls-13" points="122.1 179.56 118.52 181.35 118.52 175.6 122.1 173.81 122.1 179.56"/><polygon class="cls-12" points="119.3 177.95 122.22 176.49 122.22 176.23 119.3 177.69 119.3 177.95"/><path class="cls-13" d="M125.38,176a3.38,3.38,0,0,0-1.79,2.69,1.75,1.75,0,0,0,0,.24l3.53-1.76a2.45,2.45,0,0,0,0-.27C127.17,176,126.37,175.55,125.38,176Z" transform="translate(-5.08 -3.13)"/><polygon class="cls-12" points="120.45 180.39 120.16 180.53 120.16 172.96 120.45 172.81 120.45 180.39"/><polygon class="cls-11" points="123.27 180.15 122.35 179.69 122.35 173.51 123.27 173.97 123.27 180.15"/><rect class="cls-9" x="117.79" y="174.7" width="1.51" height="7.92"/><polygon class="cls-14" points="123.27 180.15 119.31 182.14 119.31 181.22 122.35 179.69 123.27 180.15"/><path class="cls-9" d="M126.32,176.07a2.11,2.11,0,0,1,.94-.24c-.3-.59-1-.75-1.88-.33a3.83,3.83,0,0,0-2,3.05c0,.78.32,1.17,1,1.19-.09-.19,0-.36,0-.63A3.81,3.81,0,0,1,126.32,176.07Z" transform="translate(-5.08 -3.13)"/><path class="cls-11" d="M127.26,175.83a1.42,1.42,0,0,1,.15.68v0h0v0l0,2.71a3.54,3.54,0,0,0,.92-2.16A1.12,1.12,0,0,0,127.26,175.83Z" transform="translate(-5.08 -3.13)"/><path class="cls-9" d="M127.07,175.84a2.57,2.57,0,0,1,1.12.53,2.34,2.34,0,0,0-1.76-1.1Z" transform="translate(-5.08 -3.13)"/><polygon class="cls-11" points="131.47 168.87 130.81 167.93 131.32 168.1 131.55 168.33 131.47 168.87"/><ellipse class="cls-12" cx="134.52" cy="173.24" rx="2.62" ry="1.6" transform="translate(-89.89 169.53) rotate(-52.02)"/><polygon class="cls-12" points="127.4 177.13 127.4 171.13 131.49 169.08 131.49 175.09 127.4 177.13"/><polygon class="cls-13" points="131.23 174.96 127.65 176.75 127.65 171 131.23 169.21 131.23 174.96"/><polygon class="cls-12" points="128.44 173.35 131.35 171.89 131.35 171.63 128.44 173.09 128.44 173.35"/><path class="cls-13" d="M134.52,171.44a3.38,3.38,0,0,0-1.79,2.69,1.79,1.79,0,0,0,0,.24l3.53-1.76a2.48,2.48,0,0,0,0-.27C136.31,171.35,135.51,171,134.52,171.44Z" transform="translate(-5.08 -3.13)"/><polygon class="cls-12" points="129.58 175.79 129.3 175.93 129.3 168.36 129.58 168.21 129.58 175.79"/><polygon class="cls-11" points="132.41 175.55 131.49 175.09 131.49 168.91 132.41 169.37 132.41 175.55"/><rect class="cls-9" x="126.93" y="170.11" width="1.51" height="7.92"/><polygon class="cls-14" points="132.41 175.55 128.44 177.54 128.44 176.62 131.49 175.09 132.41 175.55"/><path class="cls-9" d="M135.46,171.47a2.11,2.11,0,0,1,.94-.24c-.3-.59-1-.75-1.88-.32a3.81,3.81,0,0,0-2,3c0,.78.31,1.17,1,1.19-.1-.19,0-.36,0-.62A3.83,3.83,0,0,1,135.46,171.47Z" transform="translate(-5.08 -3.13)"/><path class="cls-11" d="M136.4,171.23a1.55,1.55,0,0,1,.14.68v0h0v0l0,2.71a3.48,3.48,0,0,0,.92-2.16A1.12,1.12,0,0,0,136.4,171.23Z" transform="translate(-5.08 -3.13)"/><path class="cls-9" d="M136.21,171.24a2.5,2.5,0,0,1,1.11.54,2.33,2.33,0,0,0-1.75-1.11Z" transform="translate(-5.08 -3.13)"/><polygon class="cls-11" points="140.6 164.27 139.94 163.33 140.46 163.51 140.69 163.73 140.6 164.27"/><ellipse class="cls-12" cx="143.65" cy="168.64" rx="2.62" ry="1.6" transform="translate(-82.75 174.96) rotate(-52.02)"/><polygon class="cls-12" points="136.53 172.53 136.53 166.53 140.62 164.48 140.62 170.49 136.53 172.53"/><polygon class="cls-13" points="140.37 170.36 136.78 172.15 136.78 166.4 140.37 164.61 140.37 170.36"/><polygon class="cls-12" points="137.57 168.75 140.48 167.29 140.48 167.03 137.57 168.49 137.57 168.75"/><path class="cls-13" d="M143.65,166.85a3.35,3.35,0,0,0-1.79,2.68.93.93,0,0,0,0,.24l3.53-1.76a2.45,2.45,0,0,0,0-.27C145.44,166.75,144.64,166.35,143.65,166.85Z" transform="translate(-5.08 -3.13)"/><polygon class="cls-12" points="138.72 171.19 138.43 171.33 138.43 163.76 138.72 163.61 138.72 171.19"/><polygon class="cls-11" points="141.54 170.95 140.62 170.49 140.62 164.31 141.54 164.77 141.54 170.95"/><rect class="cls-9" x="136.06" y="165.51" width="1.51" height="7.92"/><polygon class="cls-14" points="141.54 170.95 137.57 172.94 137.57 172.02 140.62 170.49 141.54 170.95"/><path class="cls-9" d="M144.59,166.87a2,2,0,0,1,.94-.23c-.3-.6-1-.76-1.88-.33a3.81,3.81,0,0,0-2,3c0,.78.31,1.17,1,1.19-.1-.19,0-.36,0-.62A3.83,3.83,0,0,1,144.59,166.87Z" transform="translate(-5.08 -3.13)"/><path class="cls-11" d="M145.53,166.64a1.51,1.51,0,0,1,.15.67v0h0v2.73a3.49,3.49,0,0,0,.93-2.16A1.1,1.1,0,0,0,145.53,166.64Z" transform="translate(-5.08 -3.13)"/><path class="cls-9" d="M145.34,166.64a2.57,2.57,0,0,1,1.12.54,2.36,2.36,0,0,0-1.76-1.11Z" transform="translate(-5.08 -3.13)"/><polygon class="cls-4" points="95.17 191.59 101.04 188.89 101.04 190.41 105 189.35 105 187.66 110.17 185.13 110.17 185.81 114.14 184.75 114.14 183.06 119.31 180.53 119.31 181.22 123.27 180.15 123.27 178.67 128.44 176.12 128.44 176.62 132.41 175.55 132.41 173.81 137.57 171.52 137.57 172.02 141.54 170.95 141.54 169.54 145.07 167.88 145.11 163.61 101.27 185.56 95.17 182.44 95.17 191.59"/><polygon class="cls-15" points="113.67 200.68 109.27 202.88 109.27 193.94 113.67 191.73 113.67 200.68"/><polygon class="cls-11" points="113 192.07 113 200.4 113.67 200.68 113.67 191.73 113 192.07"/><polygon class="cls-6" points="109.27 202.88 113.67 200.68 113 200.4 109.27 202.21 109.27 202.88"/><polygon class="cls-15" points="123.44 195.8 119.03 198.01 119.03 189.06 123.44 186.85 123.44 195.8"/><polygon class="cls-11" points="122.77 187.19 122.77 195.53 123.44 195.8 123.44 186.85 122.77 187.19"/><polygon class="cls-6" points="119.03 198.01 123.44 195.8 122.77 195.53 119.03 197.34 119.03 198.01"/><polygon class="cls-15" points="132.51 191.24 128.1 193.53 128.1 184.58 132.51 182.37 132.51 191.24"/><polygon class="cls-11" points="131.84 182.71 131.84 191.04 132.51 191.24 132.51 182.37 131.84 182.71"/><polygon class="cls-6" points="128.1 193.53 132.59 191.26 131.84 191.04 128.1 192.85 128.1 193.53"/><polygon class="cls-4" points="125.64 197.91 122.66 197.91 120 196.85 119.77 188.69 120.12 188.51 120.16 181.71 122.19 180.72 122.32 187.42 121.98 187.59 122.33 195.74 123.68 196.31 125.09 196.33 124.66 196.55 124.66 197.43 125.64 197.91"/><polygon class="cls-4" points="116.41 202.64 112.78 202.78 109.94 201.85 109.91 193.61 110.28 193.42 110.3 186.68 112.47 185.59 112.46 192.36 112.56 192.28 112.66 200.57 114.1 201.15 115.79 201.03 115.35 201.25 115.35 202.11 116.41 202.64"/><polygon class="cls-8" points="127.95 169.94 130.42 171.16 129.89 171.21 127.73 170.13 127.95 169.94"/><polygon class="cls-11" points="127.44 198.82 124.66 197.43 124.66 196.57 127.44 197.96 127.44 198.82"/><polygon class="cls-16" points="127.44 197.96 124.66 196.57 127.44 195.18 130.22 196.57 127.44 197.96"/><polygon class="cls-9" points="130.22 197.43 127.44 198.82 127.44 197.96 130.22 196.57 130.22 197.43"/><polygon class="cls-11" points="127.44 197.7 125.09 196.52 125.09 195.8 127.44 196.97 127.44 197.7"/><polygon class="cls-16" points="127.44 196.97 125.09 195.8 127.44 194.62 129.78 195.8 127.44 196.97"/><polygon class="cls-9" points="129.78 196.52 127.44 197.7 127.44 196.97 129.78 195.8 129.78 196.52"/><polygon class="cls-17" points="127.44 194.5 125.89 194.5 125.89 195.7 128.99 195.7 128.99 194.5 127.44 194.5"/><path class="cls-17" d="M133.61,198.28c.6.3.6.79,0,1.09a2.69,2.69,0,0,1-2.19,0c-.61-.3-.61-.79,0-1.09A2.78,2.78,0,0,1,133.61,198.28Z" transform="translate(-5.08 -3.13)"/><ellipse class="cls-16" cx="127.44" cy="194.5" rx="1.55" ry="0.77"/><polygon class="cls-17" points="127.44 173.88 126.07 173.88 126.07 194.23 128.81 194.23 128.81 173.88 127.44 173.88"/><path class="cls-17" d="M133.48,196.88c.54.26.54.7,0,1a2.49,2.49,0,0,1-1.93,0c-.54-.27-.54-.71,0-1A2.4,2.4,0,0,1,133.48,196.88Z" transform="translate(-5.08 -3.13)"/><ellipse class="cls-18" cx="127.44" cy="173.89" rx="1.37" ry="0.68"/><polygon class="cls-19" points="127.44 172.96 125.89 172.96 125.89 174.15 128.99 174.15 128.99 172.96 127.44 172.96"/><path class="cls-19" d="M133.61,176.74c.6.3.6.79,0,1.09a2.78,2.78,0,0,1-2.19,0c-.61-.3-.61-.79,0-1.09A2.69,2.69,0,0,1,133.61,176.74Z" transform="translate(-5.08 -3.13)"/><ellipse class="cls-18" cx="127.44" cy="172.96" rx="1.55" ry="0.77"/><polygon class="cls-11" points="127.44 174.27 125.09 173.1 125.09 172.18 127.44 173.36 127.44 174.27"/><polygon class="cls-18" points="127.44 173.36 125.09 172.18 127.44 171.01 129.78 172.18 127.44 173.36"/><polygon class="cls-20" points="129.78 173.1 127.44 174.27 127.44 173.36 129.78 172.18 129.78 173.1"/><polygon class="cls-21" points="130.22 172.13 127.44 173.52 127.44 172.66 130.22 171.27 130.22 172.13"/><path class="cls-22" d="M130.93,174.62a1.43,1.43,0,0,1-.76,1.14c-.42.21-.76,0-.76-.38a1.43,1.43,0,0,1,.76-1.14C130.59,174,130.93,174.2,130.93,174.62Z" transform="translate(-5.08 -3.13)"/><path class="cls-8" d="M133.22,173.47a1.42,1.42,0,0,1-.75,1.14c-.42.21-.76,0-.76-.38a1.43,1.43,0,0,1,.76-1.14C132.89,172.89,133.22,173.06,133.22,173.47Z" transform="translate(-5.08 -3.13)"/><polygon class="cls-8" points="125.09 172.22 125.09 171.11 127.39 169.97 127.39 171.07 125.09 172.22"/><polygon class="cls-19" points="125.09 171.11 127.59 172.36 129.89 171.21 127.39 169.97 125.09 171.11"/><polygon class="cls-19" points="124.54 172.67 127.04 173.91 127.59 172.36 125.09 171.11 124.54 172.67"/><path class="cls-23" d="M135,174.34l-2.3,1.15a1.43,1.43,0,0,0-.76,1.13c0,.42.34.59.76.38a1.45,1.45,0,0,0,.67-.75l.95-.47c.13.18.38.22.68.07a1.4,1.4,0,0,0,.76-1.13C135.73,174.3,135.39,174.13,135,174.34Z" transform="translate(-5.08 -3.13)"/><path class="cls-24" d="M135.46,174.44a.5.5,0,0,1,0,.19,1.32,1.32,0,0,1-.67,1,.77.77,0,0,1-.27.07.29.29,0,0,1-.18-.07l0,.05a.24.24,0,0,0,.21.1.6.6,0,0,0,.27-.07,1.28,1.28,0,0,0,.67-1A.35.35,0,0,0,135.46,174.44Z" transform="translate(-5.08 -3.13)"/><path class="cls-24" d="M133.15,176.06l0,.05a1.32,1.32,0,0,1-.6.67.63.63,0,0,1-.27.08.25.25,0,0,1-.16-.05.25.25,0,0,0,.23.13.6.6,0,0,0,.27-.07,1.41,1.41,0,0,0,.6-.67l0-.06,1.11-.55-.06-.09Z" transform="translate(-5.08 -3.13)"/><path class="cls-17" d="M134.83,175.64a1.32,1.32,0,0,0,.67-1,.5.5,0,0,0,0-.19.33.33,0,0,0-.15,0,.77.77,0,0,0-.28.07l-2.29,1.15a1.29,1.29,0,0,0-.68,1,.43.43,0,0,0,0,.19.25.25,0,0,0,.16.05.63.63,0,0,0,.27-.08,1.32,1.32,0,0,0,.6-.67l0-.05,1.07-.54.11.07h0l0,0a.29.29,0,0,0,.18.07A.77.77,0,0,0,134.83,175.64Z" transform="translate(-5.08 -3.13)"/><path class="cls-4" d="M132.1,177.19V178l.41,0v20l-.27.34v1.2l-.14.29-.58.45-.23.15-.57.58-1-.5v-.86l.44-.22v-.55l.79-.4v-.9a.48.48,0,0,1,.2-.38l0-19.6s-.2-.22-.18-.37v-.63Z" transform="translate(-5.08 -3.13)"/><polygon class="cls-11" points="103.99 195.58 103.33 194.64 103.84 194.81 104.07 195.04 103.99 195.58"/><ellipse class="cls-12" cx="107.04" cy="199.95" rx="2.62" ry="1.6" transform="translate(-121.51 158.14) rotate(-52.02)"/><polygon class="cls-12" points="99.92 203.84 99.92 197.84 104 195.79 104 201.8 99.92 203.84"/><polygon class="cls-13" points="103.75 201.67 100.17 203.46 100.17 197.71 103.75 195.92 103.75 201.67"/><polygon class="cls-12" points="100.95 200.06 103.87 198.6 103.87 198.34 100.95 199.8 100.95 200.06"/><path class="cls-13" d="M107,198.15a3.38,3.38,0,0,0-1.79,2.69,1.79,1.79,0,0,0,0,.24l3.53-1.76a2.48,2.48,0,0,0,0-.27C108.83,198.06,108,197.66,107,198.15Z" transform="translate(-5.08 -3.13)"/><polygon class="cls-12" points="102.1 202.5 101.82 202.64 101.82 195.07 102.1 194.92 102.1 202.5"/><polygon class="cls-11" points="104.93 202.26 104 201.8 104 195.62 104.93 196.08 104.93 202.26"/><rect class="cls-9" x="99.45" y="196.82" width="1.51" height="7.92"/><polygon class="cls-14" points="104.93 202.26 100.96 204.25 100.96 203.33 104 201.8 104.93 202.26"/><path class="cls-9" d="M108,198.18a2.12,2.12,0,0,1,1-.24c-.3-.59-1-.75-1.88-.32a3.81,3.81,0,0,0-2,3c0,.78.31,1.17.95,1.19-.09-.19,0-.36,0-.62A3.82,3.82,0,0,1,108,198.18Z" transform="translate(-5.08 -3.13)"/><path class="cls-11" d="M108.92,197.94a1.59,1.59,0,0,1,.14.68v0h0v0l0,2.71a3.54,3.54,0,0,0,.92-2.16A1.12,1.12,0,0,0,108.92,197.94Z" transform="translate(-5.08 -3.13)"/><path class="cls-9" d="M108.73,198a2.5,2.5,0,0,1,1.11.54,2.33,2.33,0,0,0-1.75-1.11Z" transform="translate(-5.08 -3.13)"/><polygon class="cls-11" points="140.79 176.86 140.13 175.92 140.64 176.09 140.87 176.32 140.79 176.86"/><ellipse class="cls-12" cx="143.83" cy="181.23" rx="2.62" ry="1.6" transform="translate(-92.6 179.94) rotate(-52.02)"/><polygon class="cls-12" points="136.71 185.12 136.71 179.12 140.8 177.07 140.8 183.08 136.71 185.12"/><polygon class="cls-13" points="140.55 182.95 136.97 184.74 136.97 178.99 140.55 177.2 140.55 182.95"/><polygon class="cls-12" points="137.75 181.34 140.67 179.88 140.67 179.62 137.75 181.08 137.75 181.34"/><path class="cls-13" d="M143.83,179.43a3.4,3.4,0,0,0-1.79,2.69,1.75,1.75,0,0,0,0,.24l3.53-1.76a2.48,2.48,0,0,0,0-.27C145.63,179.34,144.82,178.94,143.83,179.43Z" transform="translate(-5.08 -3.13)"/><polygon class="cls-12" points="138.9 183.78 138.62 183.92 138.62 176.35 138.9 176.2 138.9 183.78"/><polygon class="cls-11" points="141.72 183.54 140.8 183.08 140.8 176.9 141.72 177.36 141.72 183.54"/><rect class="cls-9" x="136.24" y="178.1" width="1.51" height="7.92"/><polygon class="cls-14" points="141.72 183.54 137.76 185.53 137.76 184.61 140.8 183.08 141.72 183.54"/><path class="cls-9" d="M144.77,179.46a2.11,2.11,0,0,1,.94-.24c-.3-.59-1-.75-1.88-.32a3.8,3.8,0,0,0-2,3c0,.78.31,1.17.95,1.19-.09-.19,0-.36,0-.62A3.8,3.8,0,0,1,144.77,179.46Z" transform="translate(-5.08 -3.13)"/><path class="cls-11" d="M145.71,179.22a1.42,1.42,0,0,1,.15.68v0h0v0l0,2.71a3.54,3.54,0,0,0,.92-2.16A1.12,1.12,0,0,0,145.71,179.22Z" transform="translate(-5.08 -3.13)"/><path class="cls-9" d="M145.53,179.23a2.5,2.5,0,0,1,1.11.54,2.33,2.33,0,0,0-1.75-1.11Z" transform="translate(-5.08 -3.13)"/><path class="cls-4" d="M142.83,187.76l4-1.06,0-5.85a2,2,0,0,0-.13-1.06,2,2,0,0,0-1.11-.53C145,179.24,142.83,187.76,142.83,187.76Z" transform="translate(-5.08 -3.13)"/><path class="cls-4" d="M106,206.46l4-1.07,0-5.85a2,2,0,0,0-.13-1,2,2,0,0,0-1.11-.54C108.16,197.94,106,206.46,106,206.46Z" transform="translate(-5.08 -3.13)"/><polygon class="cls-8" points="118.65 174.61 121.12 175.84 120.59 175.89 118.42 174.81 118.65 174.61"/><polygon class="cls-11" points="118.13 203.5 115.35 202.11 115.35 201.25 118.13 202.64 118.13 203.5"/><polygon class="cls-16" points="118.13 202.64 115.35 201.25 118.13 199.86 120.92 201.25 118.13 202.64"/><polygon class="cls-9" points="120.92 202.11 118.13 203.5 118.13 202.64 120.92 201.25 120.92 202.11"/><polygon class="cls-11" points="118.13 202.38 115.79 201.2 115.79 200.47 118.13 201.65 118.13 202.38"/><polygon class="cls-16" points="118.13 201.65 115.79 200.47 118.13 199.3 120.48 200.47 118.13 201.65"/><polygon class="cls-9" points="120.48 201.2 118.13 202.38 118.13 201.65 120.48 200.47 120.48 201.2"/><polygon class="cls-17" points="118.13 199.18 116.58 199.18 116.58 200.38 119.68 200.38 119.68 199.18 118.13 199.18"/><ellipse class="cls-17" cx="118.13" cy="200.37" rx="1.55" ry="0.77"/><ellipse class="cls-16" cx="118.13" cy="199.18" rx="1.55" ry="0.77"/><polygon class="cls-17" points="118.13 178.56 116.77 178.56 116.77 198.91 119.5 198.91 119.5 178.56 118.13 178.56"/><ellipse class="cls-17" cx="118.13" cy="198.91" rx="1.37" ry="0.68"/><ellipse class="cls-18" cx="118.13" cy="178.56" rx="1.37" ry="0.68"/><polygon class="cls-19" points="118.13 177.64 116.58 177.64 116.58 178.83 119.68 178.83 119.68 177.64 118.13 177.64"/><ellipse class="cls-19" cx="118.13" cy="178.83" rx="1.55" ry="0.77"/><ellipse class="cls-18" cx="118.13" cy="177.64" rx="1.55" ry="0.77"/><polygon class="cls-11" points="118.13 178.95 115.79 177.78 115.79 176.86 118.13 178.04 118.13 178.95"/><polygon class="cls-18" points="118.13 178.04 115.79 176.86 118.13 175.69 120.48 176.86 118.13 178.04"/><polygon class="cls-20" points="120.48 177.78 118.13 178.95 118.13 178.04 120.48 176.86 120.48 177.78"/><polygon class="cls-21" points="120.92 176.81 118.13 178.2 118.13 177.34 120.92 175.94 120.92 176.81"/><path class="cls-22" d="M121.62,179.3a1.44,1.44,0,0,1-.75,1.14c-.42.21-.76,0-.76-.38a1.43,1.43,0,0,1,.76-1.14C121.28,178.71,121.62,178.88,121.62,179.3Z" transform="translate(-5.08 -3.13)"/><path class="cls-8" d="M123.92,178.15a1.43,1.43,0,0,1-.76,1.14c-.42.21-.76,0-.76-.38a1.43,1.43,0,0,1,.76-1.14C123.58,177.56,123.92,177.73,123.92,178.15Z" transform="translate(-5.08 -3.13)"/><polygon class="cls-8" points="115.79 176.9 115.79 175.79 118.09 174.64 118.09 175.75 115.79 176.9"/><polygon class="cls-19" points="115.79 175.79 118.29 177.03 120.59 175.89 118.09 174.64 115.79 175.79"/><polygon class="cls-19" points="115.24 177.35 117.74 178.59 118.29 177.03 115.79 175.79 115.24 177.35"/><path class="cls-23" d="M125.66,179l-2.29,1.15a1.4,1.4,0,0,0-.76,1.13c0,.42.34.59.76.38a1.49,1.49,0,0,0,.67-.75l.95-.47c.13.18.38.22.67.07a1.43,1.43,0,0,0,.76-1.13C126.42,179,126.08,178.81,125.66,179Z" transform="translate(-5.08 -3.13)"/><path class="cls-24" d="M126.16,179.12a.46.46,0,0,1,0,.19,1.27,1.27,0,0,1-.68,1,.56.56,0,0,1-.26.08.27.27,0,0,1-.18-.07l0,.05a.22.22,0,0,0,.21.1.77.77,0,0,0,.27-.07,1.3,1.3,0,0,0,.67-1A.35.35,0,0,0,126.16,179.12Z" transform="translate(-5.08 -3.13)"/><path class="cls-24" d="M123.85,180.74l0,0a1.26,1.26,0,0,1-.59.67.63.63,0,0,1-.28.08.25.25,0,0,1-.15,0,.24.24,0,0,0,.23.13.77.77,0,0,0,.27-.07,1.39,1.39,0,0,0,.6-.68l0-.05,1.11-.55-.06-.09Z" transform="translate(-5.08 -3.13)"/><path class="cls-17" d="M125.52,180.31a1.27,1.27,0,0,0,.68-1,.46.46,0,0,0,0-.19.34.34,0,0,0-.16,0,.6.6,0,0,0-.27.07l-2.3,1.15a1.28,1.28,0,0,0-.67,1,.43.43,0,0,0,0,.19.25.25,0,0,0,.15,0,.63.63,0,0,0,.28-.08,1.26,1.26,0,0,0,.59-.67l0,0,1.07-.54.11.07h0l0,0a.27.27,0,0,0,.18.07A.56.56,0,0,0,125.52,180.31Z" transform="translate(-5.08 -3.13)"/><path class="cls-4" d="M122.8,181.87v.84l.41,0v20l-.27.35v1.19l-.14.29-.59.46-.22.15-.57.57-1-.49v-.86l.43-.22v-.56l.8-.39v-.9a.45.45,0,0,1,.2-.38l0-19.6s-.21-.22-.18-.37v-.63Z" transform="translate(-5.08 -3.13)"/><polygon class="cls-8" points="138.22 165.04 140.69 166.27 140.15 166.31 137.99 165.24 138.22 165.04"/><polygon class="cls-11" points="137.7 193.93 134.92 192.54 134.92 191.68 137.7 193.07 137.7 193.93"/><polygon class="cls-16" points="137.7 193.07 134.92 191.68 137.7 190.28 140.48 191.68 137.7 193.07"/><polygon class="cls-9" points="140.48 192.54 137.7 193.93 137.7 193.07 140.48 191.68 140.48 192.54"/><polygon class="cls-11" points="137.7 192.8 135.35 191.63 135.35 190.9 137.7 192.07 137.7 192.8"/><polygon class="cls-16" points="137.7 192.07 135.35 190.9 137.7 189.73 140.05 190.9 137.7 192.07"/><polygon class="cls-9" points="140.05 191.63 137.7 192.8 137.7 192.07 140.05 190.9 140.05 191.63"/><polygon class="cls-17" points="137.7 189.61 136.15 189.61 136.15 190.8 139.25 190.8 139.25 189.61 137.7 189.61"/><path class="cls-17" d="M143.87,193.38c.61.31.61.8,0,1.1a2.78,2.78,0,0,1-2.19,0c-.6-.3-.6-.79,0-1.1A2.78,2.78,0,0,1,143.87,193.38Z" transform="translate(-5.08 -3.13)"/><path class="cls-16" d="M143.87,192.19c.61.3.61.79,0,1.09a2.69,2.69,0,0,1-2.19,0c-.6-.3-.6-.79,0-1.09A2.78,2.78,0,0,1,143.87,192.19Z" transform="translate(-5.08 -3.13)"/><polygon class="cls-17" points="137.7 168.99 136.33 168.99 136.33 189.34 139.07 189.34 139.07 168.99 137.7 168.99"/><ellipse class="cls-17" cx="137.7" cy="189.34" rx="1.37" ry="0.68"/><ellipse class="cls-18" cx="137.7" cy="168.99" rx="1.37" ry="0.68"/><polygon class="cls-19" points="137.7 168.06 136.15 168.06 136.15 169.26 139.25 169.26 139.25 168.06 137.7 168.06"/><path class="cls-19" d="M143.87,171.84c.61.3.61.79,0,1.1a2.78,2.78,0,0,1-2.19,0c-.6-.31-.6-.8,0-1.1A2.78,2.78,0,0,1,143.87,171.84Z" transform="translate(-5.08 -3.13)"/><path class="cls-18" d="M143.87,170.65c.61.3.61.79,0,1.09a2.78,2.78,0,0,1-2.19,0c-.6-.3-.6-.79,0-1.09A2.69,2.69,0,0,1,143.87,170.65Z" transform="translate(-5.08 -3.13)"/><polygon class="cls-11" points="137.7 169.38 135.35 168.2 135.35 167.29 137.7 168.46 137.7 169.38"/><polygon class="cls-18" points="137.7 168.46 135.35 167.29 137.7 166.12 140.05 167.29 137.7 168.46"/><polygon class="cls-20" points="140.05 168.2 137.7 169.38 137.7 168.46 140.05 167.29 140.05 168.2"/><polygon class="cls-21" points="140.48 167.24 137.7 168.63 137.7 167.76 140.48 166.37 140.48 167.24"/><path class="cls-22" d="M141.19,169.73a1.43,1.43,0,0,1-.76,1.14c-.42.21-.76,0-.76-.38a1.43,1.43,0,0,1,.76-1.14C140.85,169.14,141.19,169.31,141.19,169.73Z" transform="translate(-5.08 -3.13)"/><path class="cls-8" d="M143.49,168.58a1.43,1.43,0,0,1-.76,1.14c-.42.21-.76,0-.76-.38a1.43,1.43,0,0,1,.76-1.14C143.15,168,143.49,168.16,143.49,168.58Z" transform="translate(-5.08 -3.13)"/><polygon class="cls-8" points="135.35 167.32 135.35 166.22 137.65 165.07 137.65 166.17 135.35 167.32"/><polygon class="cls-19" points="135.35 166.22 137.85 167.46 140.15 166.31 137.65 165.07 135.35 166.22"/><polygon class="cls-19" points="134.8 167.77 137.31 169.02 137.85 167.46 135.35 166.22 134.8 167.77"/><path class="cls-23" d="M145.23,169.44l-2.3,1.15a1.43,1.43,0,0,0-.76,1.14c0,.42.34.59.76.38a1.45,1.45,0,0,0,.67-.75l1-.48a.49.49,0,0,0,.67.08,1.43,1.43,0,0,0,.76-1.14C146,169.4,145.65,169.23,145.23,169.44Z" transform="translate(-5.08 -3.13)"/><path class="cls-24" d="M145.72,169.55a.43.43,0,0,1,0,.19,1.28,1.28,0,0,1-.67,1,.6.6,0,0,1-.27.07.21.21,0,0,1-.17-.07l0,.06a.27.27,0,0,0,.21.1.59.59,0,0,0,.27-.08,1.27,1.27,0,0,0,.68-1A.31.31,0,0,0,145.72,169.55Z" transform="translate(-5.08 -3.13)"/><path class="cls-24" d="M143.41,171.17l0,.05a1.36,1.36,0,0,1-.6.67.6.6,0,0,1-.27.07.21.21,0,0,1-.15,0,.22.22,0,0,0,.22.13.59.59,0,0,0,.27-.08,1.28,1.28,0,0,0,.6-.67l0-.05,1.12-.56-.06-.09Z" transform="translate(-5.08 -3.13)"/><path class="cls-17" d="M145.09,170.74a1.28,1.28,0,0,0,.67-1,.43.43,0,0,0,0-.19.22.22,0,0,0-.15,0,.57.57,0,0,0-.27.07l-2.3,1.15a1.26,1.26,0,0,0-.67,1,.33.33,0,0,0,0,.19.21.21,0,0,0,.15,0,.6.6,0,0,0,.27-.07,1.36,1.36,0,0,0,.6-.67l0-.05,1.08-.54.11.06h0l.05.05a.21.21,0,0,0,.17.07A.6.6,0,0,0,145.09,170.74Z" transform="translate(-5.08 -3.13)"/><path class="cls-4" d="M142.37,172.3v.84l.41,0v20l-.28.35v1.19l-.13.29-.59.45-.23.16-.57.57-1-.49v-.86l.44-.22V194l.8-.4v-.89a.45.45,0,0,1,.2-.38l0-19.61s-.21-.21-.18-.36v-.63Z" transform="translate(-5.08 -3.13)"/><polygon class="cls-8" points="108.88 179.52 111.34 180.75 110.81 180.79 108.65 179.72 108.88 179.52"/><polygon class="cls-11" points="108.36 208.41 105.58 207.02 105.58 206.16 108.36 207.55 108.36 208.41"/><polygon class="cls-16" points="108.36 207.55 105.58 206.16 108.36 204.77 111.14 206.16 108.36 207.55"/><polygon class="cls-9" points="111.14 207.02 108.36 208.41 108.36 207.55 111.14 206.16 111.14 207.02"/><polygon class="cls-11" points="108.36 207.28 106.01 206.11 106.01 205.38 108.36 206.56 108.36 207.28"/><polygon class="cls-16" points="108.36 206.56 106.01 205.38 108.36 204.21 110.7 205.38 108.36 206.56"/><polygon class="cls-9" points="110.7 206.11 108.36 207.28 108.36 206.56 110.7 205.38 110.7 206.11"/><polygon class="cls-17" points="108.36 204.09 106.81 204.09 106.81 205.28 109.91 205.28 109.91 204.09 108.36 204.09"/><ellipse class="cls-17" cx="108.36" cy="205.28" rx="1.55" ry="0.77"/><ellipse class="cls-16" cx="108.36" cy="204.09" rx="1.55" ry="0.77"/><polygon class="cls-17" points="108.36 183.47 106.99 183.47 106.99 203.82 109.73 203.82 109.73 183.47 108.36 183.47"/><path class="cls-17" d="M114.4,206.46c.54.27.54.7,0,1a2.4,2.4,0,0,1-1.93,0c-.54-.27-.54-.7,0-1A2.49,2.49,0,0,1,114.4,206.46Z" transform="translate(-5.08 -3.13)"/><ellipse class="cls-18" cx="108.36" cy="183.47" rx="1.37" ry="0.68"/><polygon class="cls-19" points="108.36 182.55 106.81 182.55 106.81 183.74 109.91 183.74 109.91 182.55 108.36 182.55"/><ellipse class="cls-19" cx="108.36" cy="183.74" rx="1.55" ry="0.77"/><ellipse class="cls-18" cx="108.36" cy="182.55" rx="1.55" ry="0.77"/><polygon class="cls-11" points="108.36 183.86 106.01 182.68 106.01 181.77 108.36 182.94 108.36 183.86"/><polygon class="cls-18" points="108.36 182.94 106.01 181.77 108.36 180.6 110.7 181.77 108.36 182.94"/><polygon class="cls-20" points="110.7 182.68 108.36 183.86 108.36 182.94 110.7 181.77 110.7 182.68"/><polygon class="cls-21" points="111.14 181.72 108.36 183.11 108.36 182.25 111.14 180.85 111.14 181.72"/><path class="cls-22" d="M111.85,184.21a1.43,1.43,0,0,1-.76,1.14c-.42.21-.76,0-.76-.38a1.43,1.43,0,0,1,.76-1.14C111.51,183.62,111.85,183.79,111.85,184.21Z" transform="translate(-5.08 -3.13)"/><path class="cls-8" d="M114.15,183.06a1.43,1.43,0,0,1-.76,1.14c-.42.21-.76,0-.76-.38a1.43,1.43,0,0,1,.76-1.14C113.81,182.47,114.15,182.64,114.15,183.06Z" transform="translate(-5.08 -3.13)"/><polygon class="cls-8" points="106.01 181.81 106.01 180.7 108.31 179.55 108.31 180.66 106.01 181.81"/><polygon class="cls-19" points="106.01 180.7 108.51 181.94 110.81 180.79 108.31 179.55 106.01 180.7"/><polygon class="cls-19" points="105.46 182.26 107.97 183.5 108.51 181.94 106.01 180.7 105.46 182.26"/><path class="cls-23" d="M115.89,183.92l-2.3,1.15a1.43,1.43,0,0,0-.76,1.14c0,.42.34.59.76.38a1.49,1.49,0,0,0,.67-.75l1-.48c.12.19.37.23.67.08a1.43,1.43,0,0,0,.76-1.14C116.65,183.88,116.31,183.71,115.89,183.92Z" transform="translate(-5.08 -3.13)"/><path class="cls-24" d="M116.38,184a.46.46,0,0,1,0,.19,1.28,1.28,0,0,1-.67,1,.63.63,0,0,1-.27.08.24.24,0,0,1-.17-.07l0,.05a.27.27,0,0,0,.21.1.63.63,0,0,0,.27-.08,1.28,1.28,0,0,0,.67-1A.34.34,0,0,0,116.38,184Z" transform="translate(-5.08 -3.13)"/><path class="cls-24" d="M114.07,185.65l0,0a1.32,1.32,0,0,1-.6.67.63.63,0,0,1-.27.08.25.25,0,0,1-.16,0,.25.25,0,0,0,.23.13.59.59,0,0,0,.27-.08,1.32,1.32,0,0,0,.6-.67l0-.05,1.11-.56-.06-.08Z" transform="translate(-5.08 -3.13)"/><path class="cls-17" d="M115.75,185.22a1.28,1.28,0,0,0,.67-1,.46.46,0,0,0,0-.19.24.24,0,0,0-.15,0,.57.57,0,0,0-.27.07l-2.3,1.15a1.27,1.27,0,0,0-.68,1,.43.43,0,0,0,0,.19.25.25,0,0,0,.16,0,.63.63,0,0,0,.27-.08,1.32,1.32,0,0,0,.6-.67l0,0,1.07-.54.11.06h0l.06.06a.24.24,0,0,0,.17.07A.63.63,0,0,0,115.75,185.22Z" transform="translate(-5.08 -3.13)"/><path class="cls-4" d="M113,186.78v.84l.41,0v20l-.27.35v1.19l-.14.29-.58.46-.23.15-.57.57-1-.49v-.86l.44-.22v-.56l.8-.4v-.89a.46.46,0,0,1,.19-.38V187.23s-.21-.21-.18-.36v-.63Z" transform="translate(-5.08 -3.13)"/><polygon class="cls-20" points="101.27 185.56 151.17 160.58 151.17 157 101.27 181.99 101.27 185.56"/><polygon class="cls-10" points="101.28 181.99 151.18 157.01 144.93 153.83 95.03 178.81 101.28 181.99"/><polygon class="cls-11" points="95.02 182.38 101.27 185.56 101.27 181.99 95.02 178.8 95.02 182.38"/><polygon class="cls-12" points="90.13 189.84 90.13 181.09 86.31 179.18 86.31 187.93 90.13 189.84"/><polygon class="cls-13" points="86.55 187.81 89.89 189.48 89.89 181.21 86.55 179.53 86.55 187.81"/><polygon class="cls-12" points="88.08 188.58 88.35 188.71 88.35 180.44 88.08 180.3 88.08 188.58"/><polygon class="cls-25" points="85.45 188.35 86.31 187.92 86.31 179.18 85.45 179.62 85.45 188.35"/><rect class="cls-11" x="94.23" y="183.43" width="1.41" height="10.36" transform="translate(184.79 374.1) rotate(180)"/><polygon class="cls-26" points="85.45 188.35 89.15 190.22 89.15 189.35 86.31 187.92 85.45 188.35"/><polygon class="cls-11" points="85.45 179.62 90.56 182.18 90.56 180.3 86.31 179.18 85.45 179.62"/><polygon class="cls-12" points="89.16 183.16 86.44 181.8 86.44 181.56 89.16 182.92 89.16 183.16"/><polygon class="cls-12" points="89.16 187.38 86.44 186.02 86.44 185.78 89.16 187.14 89.16 187.38"/><polygon class="cls-12" points="90.13 202.82 90.13 194.07 86.31 192.17 86.31 200.91 90.13 202.82"/><polygon class="cls-13" points="86.55 200.8 89.89 202.47 89.89 194.19 86.55 192.52 86.55 200.8"/><polygon class="cls-12" points="88.08 201.57 88.35 201.7 88.35 193.42 88.08 193.29 88.08 201.57"/><polygon class="cls-25" points="85.45 201.34 86.31 200.91 86.31 192.17 85.45 192.6 85.45 201.34"/><rect class="cls-11" x="94.23" y="196.42" width="1.41" height="10.36" transform="translate(184.79 400.08) rotate(180)"/><polygon class="cls-26" points="85.45 201.34 89.15 203.2 89.15 202.34 86.31 200.91 85.45 201.34"/><polygon class="cls-11" points="85.45 192.6 90.56 195.16 90.56 193.29 86.31 192.17 85.45 192.6"/><polygon class="cls-12" points="89.16 196.15 86.44 194.79 86.44 194.54 89.16 195.9 89.16 196.15"/><polygon class="cls-12" points="89.16 200.37 86.44 199.01 86.44 198.76 89.16 200.13 89.16 200.37"/><polygon class="cls-7" points="95.02 211.53 95.02 217.56 106.48 223.38 106.48 217.35 95.02 211.53"/><polygon class="cls-6" points="108.18 216.5 106.48 217.35 95.02 211.54 96.64 210.73 108.18 216.5"/><polygon class="cls-5" points="108.18 222.54 106.48 223.38 106.48 217.35 108.18 216.5 108.18 222.54"/><polygon class="cls-6" points="145.25 185.82 142.63 187.24 145.39 187.79 150.45 187.24 146.24 185.23 145.25 185.82"/><polygon class="cls-27" points="41.36 169.36 121.58 129.48 121.58 128.09 41.36 167.97 41.36 169.36"/><polygon class="cls-28" points="41.35 167.97 121.58 128.09 120.58 127.59 40.41 167.44 41.35 167.97"/><polygon class="cls-27" points="41.36 169.36 40.55 168.91 40.41 167.44 41.35 167.97 41.36 169.36"/><polygon class="cls-7" points="65.06 181.28 40.35 168.86 40.35 167.47 64.53 179.57 65.06 181.28"/><polygon class="cls-6" points="64.53 179.57 40.35 167.48 41.35 166.98 65.53 179.07 64.53 179.57"/><polygon class="cls-5" points="65.06 181.28 81.31 173.14 81.31 171.75 65.06 179.89 65.06 181.28"/><polygon class="cls-6" points="65.06 179.89 82.14 171.34 81.14 170.84 64.11 179.37 65.06 179.89"/><polygon class="cls-7" points="65.06 181.28 64.26 180.83 64.11 179.37 65.06 179.89 65.06 181.28"/><polygon class="cls-7" points="101.27 183.31 81.14 173.22 81.14 171.84 101.27 181.93 101.27 183.31"/><polygon class="cls-6" points="101.27 181.93 81.14 171.84 82.14 171.34 102.27 181.43 101.27 181.93"/><polygon class="cls-27" points="144.93 142.29 120.57 129.98 120.57 128.59 144.93 140.9 144.93 142.29"/><polygon class="cls-28" points="144.93 140.91 119.6 128.09 120.59 127.59 145.93 140.41 144.93 140.91"/><polygon class="cls-5" points="131.5 148.98 145.93 141.79 145.93 140.4 131.5 147.59 131.5 148.98"/><polygon class="cls-6" points="131.5 147.59 145.81 140.46 144.81 139.96 130.55 147.07 131.5 147.59"/><polygon class="cls-27" points="131.5 148.98 130.69 148.53 130.55 147.07 131.5 147.59 131.5 148.98"/><polygon class="cls-27" points="150.46 158.66 130.33 148.56 130.33 147.18 150.46 157.27 150.46 158.66"/><polygon class="cls-28" points="150.46 157.27 130.34 147.18 131.33 146.68 151.46 156.77 150.46 157.27"/><polygon class="cls-5" points="101.26 183.32 151.68 158.26 151.68 156.87 101.26 181.93 101.26 183.32"/><polygon class="cls-6" points="101.26 181.93 151.67 156.87 150.68 156.38 100.32 181.41 101.26 181.93"/><polygon class="cls-7" points="101.26 183.32 100.46 182.87 100.32 181.41 101.26 181.93 101.26 183.32"/><polygon class="cls-5" points="43.83 168.4 121.33 129.97 121.33 127.48 42.59 166.56 43.83 168.4"/><polygon class="cls-6" points="42.59 166.56 121.33 127.48 120.37 127 41.69 166.05 42.59 166.56"/><polygon class="cls-27" points="42.59 167.89 41.83 167.45 41.69 166.05 42.59 166.56 42.59 167.89"/><polygon class="cls-7" points="64.51 178.82 41.63 167.41 41.63 166.08 64.51 177.49 64.51 178.82"/><polygon class="cls-6" points="64.51 177.49 41.63 166.08 42.59 165.6 65.47 177.01 64.51 177.49"/><polygon class="cls-5" points="65.02 179.13 81.31 170.97 81.31 169.63 65.02 177.79 65.02 179.13"/><polygon class="cls-6" points="65.02 177.79 82.1 169.24 81.14 168.76 64.11 177.29 65.02 177.79"/><polygon class="cls-7" points="65.02 179.13 64.25 178.69 64.11 177.29 65.02 177.79 65.02 179.13"/><polygon class="cls-7" points="101.23 181.11 81.14 171.04 81.14 169.71 101.23 179.77 101.23 181.11"/><polygon class="cls-6" points="101.23 179.78 81.14 169.72 82.1 169.24 102.19 179.3 101.23 179.78"/><polygon class="cls-7" points="141.45 141.04 120.36 130.42 120.36 127.96 143.42 139.57 141.45 141.04"/><polygon class="cls-6" points="143.42 139.57 119.42 127.48 120.38 127 144.37 139.1 143.42 139.57"/><polygon class="cls-5" points="129.92 147.62 144.37 140.43 144.37 139.09 129.92 146.29 129.92 147.62"/><polygon class="cls-6" points="129.92 146.29 144.26 139.15 143.3 138.67 129.01 145.78 129.92 146.29"/><polygon class="cls-27" points="129.92 147.62 129.15 147.19 129.01 145.78 129.92 146.29 129.92 147.62"/><polygon class="cls-7" points="148.89 157.28 146.75 157 128.76 147.99 128.81 145.89 148.89 155.95 148.89 157.28"/><polygon class="cls-6" points="148.89 155.95 128.81 145.89 129.76 145.41 149.85 155.47 148.89 155.95"/><polygon class="cls-5" points="101.22 181.11 150.06 156.9 150.06 155.57 101.22 179.78 101.22 181.11"/><polygon class="cls-6" points="101.22 179.78 150.06 155.57 149.1 155.09 100.32 179.28 101.22 179.78"/><polygon class="cls-7" points="101.22 181.11 100.45 180.68 100.32 179.32 101.22 179.78 101.22 181.11"/><polygon class="cls-12" points="50.11 198.13 50.11 189.38 46.3 187.47 46.3 196.22 50.11 198.13"/><polygon class="cls-13" points="46.53 196.1 49.88 197.77 49.88 189.5 46.53 187.83 46.53 196.1"/><polygon class="cls-12" points="48.07 196.87 48.34 197 48.34 188.73 48.07 188.59 48.07 196.87"/><polygon class="cls-25" points="45.44 196.65 46.3 196.22 46.3 187.48 45.44 187.91 45.44 196.65"/><rect class="cls-11" x="54.22" y="191.72" width="1.41" height="10.36" transform="translate(104.77 390.68) rotate(180)"/><polygon class="cls-26" points="45.44 196.65 49.14 198.51 49.14 197.64 46.3 196.22 45.44 196.65"/><polygon class="cls-11" points="45.44 187.91 50.55 190.47 50.55 188.59 46.3 187.48 45.44 187.91"/><polygon class="cls-12" points="49.14 191.45 46.42 190.09 46.42 189.85 49.14 191.21 49.14 191.45"/><polygon class="cls-12" points="49.14 195.67 46.42 194.31 46.42 194.07 49.14 195.43 49.14 195.67"/><polygon class="cls-12" points="50.11 185.24 50.11 176.49 46.3 174.58 46.3 183.33 50.11 185.24"/><polygon class="cls-13" points="46.53 183.21 49.88 184.88 49.88 176.61 46.53 174.93 46.53 183.21"/><polygon class="cls-12" points="48.07 183.98 48.34 184.11 48.34 175.84 48.07 175.7 48.07 183.98"/><polygon class="cls-25" points="45.44 183.76 46.3 183.32 46.3 174.59 45.44 175.02 45.44 183.76"/><rect class="cls-11" x="54.22" y="178.83" width="1.41" height="10.36" transform="translate(104.77 364.9) rotate(180)"/><polygon class="cls-26" points="45.44 183.76 49.14 185.62 49.14 184.75 46.3 183.32 45.44 183.76"/><polygon class="cls-11" points="45.44 175.02 50.55 177.58 50.55 175.7 46.3 174.59 45.44 175.02"/><polygon class="cls-12" points="49.14 178.56 46.42 177.2 46.42 176.96 49.14 178.32 49.14 178.56"/><polygon class="cls-12" points="49.14 182.78 46.42 181.42 46.42 181.18 49.14 182.54 49.14 182.78"/><polygon class="cls-12" points="61.16 190.88 61.16 182.13 57.35 180.22 57.35 188.97 61.16 190.88"/><polygon class="cls-13" points="57.59 188.86 60.93 190.53 60.93 182.25 57.59 180.58 57.59 188.86"/><polygon class="cls-12" points="59.12 189.63 59.39 189.76 59.39 181.48 59.12 181.35 59.12 189.63"/><polygon class="cls-25" points="56.49 189.4 57.35 188.97 57.35 180.23 56.49 180.66 56.49 189.4"/><rect class="cls-11" x="65.27" y="184.48" width="1.41" height="10.36" transform="translate(126.87 376.19) rotate(180)"/><polygon class="cls-26" points="56.49 189.4 60.19 191.26 60.19 190.4 57.35 188.97 56.49 189.4"/><polygon class="cls-11" points="56.49 180.66 61.6 183.22 61.6 181.35 57.35 180.23 56.49 180.66"/><polygon class="cls-12" points="60.2 184.21 57.48 182.85 57.48 182.6 60.2 183.96 60.2 184.21"/><polygon class="cls-12" points="60.2 188.43 57.48 187.07 57.48 186.82 60.2 188.18 60.2 188.43"/><polygon class="cls-12" points="61.16 203.8 61.16 195.05 57.35 193.14 57.35 201.89 61.16 203.8"/><polygon class="cls-13" points="57.59 201.78 60.93 203.45 60.93 195.17 57.59 193.5 57.59 201.78"/><polygon class="cls-12" points="59.12 202.54 59.39 202.68 59.39 194.4 59.12 194.27 59.12 202.54"/><polygon class="cls-25" points="56.49 202.32 57.35 201.89 57.35 193.15 56.49 193.58 56.49 202.32"/><rect class="cls-11" x="65.27" y="197.4" width="1.41" height="10.36" transform="translate(126.87 402.03) rotate(180)"/><polygon class="cls-26" points="56.49 202.32 60.19 204.18 60.19 203.31 57.35 201.89 56.49 202.32"/><polygon class="cls-11" points="56.49 193.58 61.6 196.14 61.6 194.27 57.35 193.15 56.49 193.58"/><polygon class="cls-12" points="60.2 197.13 57.48 195.77 57.48 195.52 60.2 196.88 60.2 197.13"/><polygon class="cls-12" points="60.2 201.35 57.48 199.99 57.48 199.74 60.2 201.1 60.2 201.35"/><polygon class="cls-4" points="135.91 193.03 132.17 192.93 129.67 192.09 129.67 183.79 129.94 183.66 129.79 176.86 132.41 175.55 131.95 175.78 132.08 182.59 131.84 182.71 131.84 191.04 132.55 191.25 132.55 191.25 135.35 191.46 134.92 191.68 134.92 192.54 135.91 193.03"/><polygon class="cls-12" points="70.91 190.32 70.91 181.57 74.73 179.66 74.73 188.41 70.91 190.32"/><polygon class="cls-13" points="74.49 188.29 71.15 189.97 71.15 181.69 74.49 180.02 74.49 188.29"/><polygon class="cls-12" points="72.95 189.06 72.69 189.2 72.69 180.92 72.95 180.79 72.95 189.06"/><polygon class="cls-11" points="75.59 188.84 74.73 188.41 74.73 179.67 75.59 180.1 75.59 188.84"/><rect class="cls-9" x="70.47" y="180.79" width="1.41" height="10.36"/><polygon class="cls-14" points="75.59 188.84 71.88 190.7 71.88 189.83 74.73 188.41 75.59 188.84"/><polygon class="cls-9" points="75.59 180.1 70.47 182.66 70.47 180.79 74.73 179.67 75.59 180.1"/><polygon class="cls-12" points="71.88 183.65 74.6 182.29 74.6 182.04 71.88 183.4 71.88 183.65"/><polygon class="cls-12" points="71.88 187.87 74.6 186.51 74.6 186.26 71.88 187.62 71.88 187.87"/><polygon class="cls-4" points="74.21 180.79 71.88 189.83 75.59 188.84 75.59 180.1 74.21 180.79"/><polygon class="cls-12" points="70.91 203.24 70.91 194.49 74.73 192.58 74.73 201.33 70.91 203.24"/><polygon class="cls-13" points="74.49 201.21 71.15 202.88 71.15 194.61 74.49 192.94 74.49 201.21"/><polygon class="cls-12" points="72.95 201.98 72.69 202.12 72.69 193.84 72.95 193.71 72.95 201.98"/><polygon class="cls-11" points="75.59 201.76 74.73 201.33 74.73 192.59 75.59 193.02 75.59 201.76"/><rect class="cls-9" x="70.47" y="193.71" width="1.41" height="10.36"/><polygon class="cls-14" points="75.59 201.76 71.88 203.62 71.88 202.75 74.73 201.33 75.59 201.76"/><polygon class="cls-9" points="75.59 193.02 70.47 195.58 70.47 193.71 74.73 192.59 75.59 193.02"/><polygon class="cls-12" points="71.88 196.57 74.6 195.21 74.6 194.96 71.88 196.32 71.88 196.57"/><polygon class="cls-12" points="71.88 200.79 74.6 199.43 74.6 199.18 71.88 200.54 71.88 200.79"/><polygon class="cls-4" points="74.21 193.73 71.88 202.78 75.59 201.78 75.59 193.04 74.21 193.73"/><polygon class="cls-4" points="152.87 188.93 151.13 189.8 151.13 191.52 153.2 192.76 153.2 194.54 155.16 195.86 155.16 198.04 158.07 197.19 158.07 191.6 152.87 188.93"/><polygon class="cls-4" points="106.48 223.38 66.05 218.17 80.99 210.58 106.48 223.38"/><polygon class="cls-4" points="65.22 183.47 81.14 174.93 101.26 184.54 101.26 183.32 81.14 173.22 65.22 181.2 65.22 183.47"/><polygon class="cls-4" points="65.22 183.47 42.14 172.28 42.12 169.75 64.85 181.16 65.06 181.28 65.22 181.2 65.22 183.47"/><polygon class="cls-4" points="101.26 184.54 151.18 159.39 151.17 158.51 101.26 183.32 101.26 184.54"/><polygon class="cls-4" points="144.71 157.27 118.22 152.47 128.76 146.98 128.76 147.99 146.01 156.63 144.71 157.27"/><polygon class="cls-4" points="109.14 136.12 138.81 140.91 142.45 139.09 120.36 127.96 109.04 133.68 109.14 136.12"/><path class="cls-4" d="M110.65,210.15v-.86l-1.43.17-1.94.1,0-2.78-1.21.6v-6.79a4.3,4.3,0,0,1,1-1.76L107,194l-.86.43,0,.1,0-2.55-1.51.69.39,18,2.65.51,4-.56Z" transform="translate(-5.08 -3.13)"/></g><g id="Workers"><circle class="cls-29" cx="225.42" cy="72.87" r="70.87"/><path class="cls-30" d="M284,113.22V38.77a65.53,65.53,0,0,0-16.44-16.4H209.7V130.62h56.37A65.59,65.59,0,0,0,284,113.22Z" transform="translate(-5.08 -3.13)"/><path class="cls-31" d="M224.09,98.67h0Z" transform="translate(-5.08 -3.13)"/><path class="cls-31" d="M277.79,102.67h0Z" transform="translate(-5.08 -3.13)"/><path class="cls-31" d="M224.09,82.67h0Z" transform="translate(-5.08 -3.13)"/><path class="cls-31" d="M277.79,86.67h0Z" transform="translate(-5.08 -3.13)"/><path class="cls-31" d="M224.09,78.67h0Z" transform="translate(-5.08 -3.13)"/><path class="cls-31" d="M224.09,58.67h0Z" transform="translate(-5.08 -3.13)"/><path class="cls-31" d="M277.79,62.67h0Z" transform="translate(-5.08 -3.13)"/><path class="cls-31" d="M224.09,54.67h0Z" transform="translate(-5.08 -3.13)"/><path class="cls-31" d="M257.79,27.67h0Z" transform="translate(-5.08 -3.13)"/><path class="cls-31" d="M257.79,31.67h0Z" transform="translate(-5.08 -3.13)"/><path class="cls-31" d="M277.79,42.67h0Z" transform="translate(-5.08 -3.13)"/><path class="cls-31" d="M277.79,46.67h0Z" transform="translate(-5.08 -3.13)"/><path class="cls-31" d="M277.79,50.67h0Z" transform="translate(-5.08 -3.13)"/><path class="cls-31" d="M277.79,66.67h0Z" transform="translate(-5.08 -3.13)"/><path class="cls-31" d="M277.79,70.67h0Z" transform="translate(-5.08 -3.13)"/><path class="cls-31" d="M277.79,74.67h0Z" transform="translate(-5.08 -3.13)"/><path class="cls-31" d="M277.79,90.67h0Z" transform="translate(-5.08 -3.13)"/><path class="cls-31" d="M277.79,94.67h0Z" transform="translate(-5.08 -3.13)"/><path class="cls-31" d="M277.79,106.67h0Z" transform="translate(-5.08 -3.13)"/><circle class="cls-32" cx="217.95" cy="77.5" r="42.11"/><path class="cls-33" d="M262.5,73.6c-.25-1.26-.55-2.5-.92-3.73C262,71.1,262.25,72.34,262.5,73.6Z" transform="translate(-5.08 -3.13)"/><path class="cls-33" d="M263.23,81.27q0-2-.18-3.87Q263.23,79.32,263.23,81.27Z" transform="translate(-5.08 -3.13)"/><path class="cls-33" d="M260.3,96.32c.31-.75.58-1.5.83-2.26C260.88,94.82,260.61,95.57,260.3,96.32Z" transform="translate(-5.08 -3.13)"/><path class="cls-33" d="M255.45,105c-.79,1.06-1.64,2.1-2.54,3.09C253.81,107.09,254.66,106.05,255.45,105Z" transform="translate(-5.08 -3.13)"/><path class="cls-33" d="M269.86,81.27c0-1.51-.07-3-.22-4.51.15,1.5.22,3,.22,4.51Z" transform="translate(-5.08 -3.13)"/><path class="cls-33" d="M263.23,81.27c0,.69,0,1.38-.05,2.07C263.21,82.65,263.23,82,263.23,81.27Z" transform="translate(-5.08 -3.13)"/><path class="cls-33" d="M240.79,124.46a45.84,45.84,0,0,1-10.8,2.93A45.84,45.84,0,0,0,240.79,124.46Z" transform="translate(-5.08 -3.13)"/><path class="cls-33" d="M205.71,124.46h0a46.31,46.31,0,0,0,17.54,3.41,46.31,46.31,0,0,1-17.54-3.41Z" transform="translate(-5.08 -3.13)"/><path class="cls-33" d="M249,120.13a44.56,44.56,0,0,1-4,2.37A44.56,44.56,0,0,0,249,120.13Z" transform="translate(-5.08 -3.13)"/><path class="cls-33" d="M210,119a36.36,36.36,0,0,0,3.69,1.1A36.36,36.36,0,0,1,210,119Z" transform="translate(-5.08 -3.13)"/><path class="cls-33" d="M256.21,48.32,251.52,53A40,40,0,1,1,195,109.54l-4.69,4.68c.75.75,1.42,1.57,2.21,2.26a46.67,46.67,0,0,0,63.7-68.16" transform="translate(-5.08 -3.13)"/><path class="cls-34" d="M186.21,96.32a40,40,0,0,1,71.44-35.45A39.89,39.89,0,0,0,251.52,53l4.69-4.68a46.6,46.6,0,1,0-65.91,65.9l4.69-4.68A39.76,39.76,0,0,1,186.21,96.32Z" transform="translate(-5.08 -3.13)"/></g></svg>